<svg width="56" height="53" viewBox="0 0 56 53" fill="none" xmlns="http://www.w3.org/2000/svg">
                                <path fill-rule="evenodd" clip-rule="evenodd" d="M33.6 11.1579V5.57895H22.4V11.1579H33.6ZM5.6 16.7368V47.4211H50.4V16.7368H5.6ZM50.4 11.1579C53.508 11.1579 56 13.6405 56 16.7368V47.4211C56 50.5174 53.508 53 50.4 53H5.6C2.492 53 0 50.5174 0 47.4211L0.028 16.7368C0.028 13.6405 2.492 11.1579 5.6 11.1579H16.8V5.57895C16.8 2.48263 19.292 0 22.4 0H33.6C36.708 0 39.2 2.48263 39.2 5.57895V11.1579H50.4Z" fill="black" />
                            </svg>