<svg width="53" height="48" viewBox="0 0 53 48" fill="none" xmlns="http://www.w3.org/2000/svg">
<path d="M38.4243 0C33.8133 0 29.3878 2.1188 26.4993 5.46703C23.6108 2.1188 19.1853 0 14.5743 0C6.41227 0 -0.000732422 6.33025 -0.000732422 14.3869C-0.000732422 24.2747 9.00927 32.3313 22.6568 44.5733L26.4993 48L30.3418 44.5471C43.9893 32.3313 52.9993 24.2747 52.9993 14.3869C52.9993 6.33025 46.5863 0 38.4243 0ZM26.7643 40.6757L26.4993 40.9373L26.2343 40.6757C13.6203 29.4016 5.29927 21.9466 5.29927 14.3869C5.29927 9.15531 9.27427 5.23161 14.5743 5.23161C18.6553 5.23161 22.6303 7.82125 24.0348 11.4049H28.9903C30.3683 7.82125 34.3433 5.23161 38.4243 5.23161C43.7243 5.23161 47.6993 9.15531 47.6993 14.3869C47.6993 21.9466 39.3783 29.4016 26.7643 40.6757Z" fill="black"/>
</svg>
