<svg width="48" height="63" viewBox="0 0 48 63" fill="none" xmlns="http://www.w3.org/2000/svg">
<path d="M31.6106 11.7209C34.8218 11.7209 37.4491 9.08372 37.4491 5.86047C37.4491 2.63721 34.8218 0 31.6106 0C28.3994 0 25.7721 2.63721 25.7721 5.86047C25.7721 9.08372 28.3994 11.7209 31.6106 11.7209ZM21.1013 52.4512L24.0205 39.5581L30.151 45.4186V63H35.9895V41.0233L29.859 35.1628L31.6106 26.3721C35.4056 30.7674 41.2441 33.6977 47.6665 33.6977V27.8372C42.1199 27.8372 37.4491 24.907 35.1137 20.8047L32.1945 16.1163C31.0267 14.3581 29.2752 13.186 27.2317 13.186C26.3559 13.186 25.7721 13.4791 24.8963 13.4791L9.71619 19.9256V33.6977H15.5547V23.7349L20.8094 21.6837L16.1386 45.4186L1.83421 42.4884L0.666504 48.3488L21.1013 52.4512Z" fill="black"/>
</svg>
