<svg width="32" height="39" viewBox="0 0 32 39" fill="none" xmlns="http://www.w3.org/2000/svg">
<path d="M16 24.6316C19.7943 24.6316 22.8343 21.8811 22.8343 18.4737L22.8571 6.1579C22.8571 2.75053 19.7943 0 16 0C12.2057 0 9.14286 2.75053 9.14286 6.1579V18.4737C9.14286 21.8811 12.2057 24.6316 16 24.6316ZM13.2571 5.95263C13.2571 4.5979 14.4914 3.48947 16 3.48947C17.5086 3.48947 18.7429 4.5979 18.7429 5.95263L18.72 18.6789C18.72 20.0337 17.5086 21.1421 16 21.1421C14.4914 21.1421 13.2571 20.0337 13.2571 18.6789V5.95263ZM28.1143 18.4737C28.1143 24.6316 22.3086 28.9421 16 28.9421C9.69143 28.9421 3.88571 24.6316 3.88571 18.4737H0C0 25.4732 6.21714 31.2616 13.7143 32.2674V39H18.2857V32.2674C25.7829 31.2821 32 25.4937 32 18.4737H28.1143Z" fill="#D45341"/>
</svg>
