<svg width="56" height="54" viewBox="0 0 56 54" fill="none" xmlns="http://www.w3.org/2000/svg">
<path d="M38.2439 5.4C38.2439 2.403 40.6751 0 43.7073 0C46.7395 0 49.1707 2.403 49.1707 5.4C49.1707 8.397 46.7395 10.8 43.7073 10.8C40.6751 10.8 38.2439 8.397 38.2439 5.4ZM49.1707 54V37.8H56L49.0615 17.199C48.2966 14.985 46.2205 13.5 43.8712 13.5H43.5434C41.1941 13.5 39.0907 14.985 38.3532 17.199L36.0039 24.165C38.9541 25.785 40.9756 28.836 40.9756 32.4V54H49.1707ZM28.6829 25.65C30.9502 25.65 32.7805 23.841 32.7805 21.6C32.7805 19.359 30.9502 17.55 28.6829 17.55C26.4156 17.55 24.5854 19.359 24.5854 21.6C24.5854 23.841 26.4156 25.65 28.6829 25.65ZM9.56098 10.8C12.5932 10.8 15.0244 8.397 15.0244 5.4C15.0244 2.403 12.5932 0 9.56098 0C6.52878 0 4.09756 2.403 4.09756 5.4C4.09756 8.397 6.52878 10.8 9.56098 10.8ZM15.0244 54V35.1H19.122V18.9C19.122 15.93 16.6634 13.5 13.6585 13.5H5.46341C2.45854 13.5 0 15.93 0 18.9V35.1H4.09756V54H15.0244ZM32.7805 54V43.2H35.5122V32.4C35.5122 30.186 33.6546 28.35 31.4146 28.35H25.9512C23.7112 28.35 21.8537 30.186 21.8537 32.4V43.2H24.5854V54H32.7805Z" fill="black"/>
</svg>
